<svg width="165" height="79" viewBox="0 0 165 79" fill="none" xmlns="http://www.w3.org/2000/svg">
<path d="M14.3732 3.00005C28.0732 3.00005 34.6732 10.8 34.6732 20.5C34.6732 30.2001 28.0732 38 14.3732 38H4.92324C2.22324 38 0.0732422 37.5 0.0732422 35.6501C0.0732422 35.5501 0.0732422 35.6501 0.0732422 35.5501C0.0732422 33.8501 1.77324 33.25 1.77324 30.8001V10.2C1.77324 7.75005 0.0732422 7.15005 0.0732422 5.45005C0.0732422 5.40005 0.0732422 5.45005 0.0732422 5.40005C0.0732422 3.50005 2.22324 3.00005 4.92324 3.00005H14.3732ZM14.4232 34.0501C20.4732 34.0501 23.4732 27.75 23.4732 20.5C23.4732 13.25 20.4732 6.95005 14.4232 6.95005C12.7232 6.95005 11.9732 7.75005 11.9732 10.2V30.8001C11.9732 33.25 12.7232 34.0501 14.4232 34.0501Z" fill="#B16927"/>
<path d="M67.6242 51.05C67.8242 52.8 67.1742 53.6 66.1242 53.6C66.0742 53.6 66.1242 53.6 66.0242 53.6C62.6742 53.6 62.2242 46.95 57.5242 46.95H56.0742V70.9501C56.0742 73.4 57.7742 74.0001 57.7742 75.7001C57.7742 75.8 57.7742 75.75 57.7742 75.8C57.7742 77.65 54.6242 78.15 50.9742 78.15C47.3242 78.15 44.2242 77.65 44.2242 75.8C44.2242 75.75 44.2242 75.8 44.2242 75.7001C44.2242 74.0001 45.9242 73.4 45.9242 70.9501V46.95H44.4742C39.7742 46.95 39.3242 53.6 35.9242 53.6C35.8742 53.6 35.9242 53.6 35.8742 53.6C34.7742 53.6 34.1742 52.8 34.3742 51.05C34.5242 49.4501 35.0742 46.25 35.4242 44.4501C35.7242 42.8501 36.3742 42.1501 37.8242 42.1501C39.5242 42.1501 40.1742 43 42.8242 43H59.1742C61.8242 43 62.4242 42.1501 64.1742 42.1501C65.5742 42.1501 66.2242 42.8501 66.5742 44.4501C66.9242 46.25 67.4242 49.4501 67.6242 51.05Z" fill="#B16927"/>
<path d="M87.9852 69.05C87.9852 71.4501 90.4852 72.0501 90.4852 73.7501C90.4852 73.8501 90.4852 73.8 90.4852 73.8501C90.4852 75.7001 89.1852 77.5 85.5852 78.3C82.5852 78.9501 80.0352 78.2001 79.3852 75.7001C79.2852 75.4 79.2352 75.1001 79.1852 74.8C78.1352 76.8 76.0852 78.5001 72.6352 78.5001C68.4352 78.5001 63.9852 76.7001 63.8352 71.9501C63.5852 65.65 68.3852 63.7001 73.7352 63.7001C75.2352 63.7001 76.6352 63.7001 77.7852 63.7001V61.6501C77.7852 57.9501 77.4852 56.7001 76.1852 56.5C72.6852 56.05 75.0352 64.05 68.4352 62.8C66.1852 62.4001 65.2852 59.25 67.0352 56.8C68.8852 54.25 73.0352 53.5 76.3352 53.5C81.0352 53.5 87.9852 55.7001 87.9852 62.8501V69.05ZM75.6352 73.7501C76.9852 73.7501 77.7852 72.55 77.7852 69.3V66.4501C77.4852 66.4501 77.1352 66.4501 76.7852 66.4501C74.4852 66.4501 73.3352 68.1001 73.3352 70.8C73.3352 73.1001 74.4352 73.7501 75.6352 73.7501Z" fill="#B16927"/>
<path d="M115.372 56.9001C116.222 58.7001 116.022 62.0501 113.572 63.5501C111.822 64.7001 108.072 65.1001 106.922 60.9501C106.672 59.9001 105.872 59.5 105.122 59.8C104.422 60 104.072 60.6001 103.972 62.8501V70.9501C103.972 73.4 105.672 74.0001 105.672 75.7001C105.672 75.8 105.672 75.75 105.672 75.8C105.672 77.65 102.522 78.15 98.8721 78.15C95.2221 78.15 92.1221 77.65 92.1221 75.8C92.1221 75.75 92.1221 75.8 92.1221 75.7001C92.1221 74.0001 93.7721 73.4 93.7721 70.9501V63.7001C93.7721 61.3 92.1221 60.7001 92.1221 59C92.1221 58.9001 92.1221 58.9501 92.1221 58.9001C92.1221 57.0501 94.0721 55.75 97.9221 54.3C101.222 53.1 103.322 53.0501 103.322 55.9001C103.322 56.4001 103.322 57.1001 103.322 57.75C104.922 55.2001 107.322 53.5 110.422 53.5C112.772 53.5 114.422 54.8501 115.372 56.9001Z" fill="#B16927"/>
<path d="M135.931 70.4501C138.081 71.5001 135.281 78.5001 128.281 78.5001C122.981 78.5001 119.431 74.7501 119.431 68.9501V58.3C118.931 58.3 118.581 58.3 118.381 58.3C117.181 58.3 116.081 57.6001 116.081 56.2001C116.081 54.3 119.331 50.4 123.581 47.9501C126.631 46.2001 129.581 46.3001 129.581 49.1501C129.581 50.2501 129.581 52.65 129.581 54.3C131.381 54.3 132.881 54.3 133.281 54.3C134.831 54.3 135.581 55.15 135.581 56.3C135.581 57.4501 134.831 58.3 133.281 58.3C132.881 58.3 131.381 58.3 129.581 58.3V67.7501C129.581 71.5501 131.631 71.4501 133.181 70.9C134.381 70.4 135.231 70.05 135.931 70.4501Z" fill="#B16927"/>
<path d="M161.985 69.05C161.985 71.4501 164.485 72.0501 164.485 73.7501C164.485 73.8501 164.485 73.8 164.485 73.8501C164.485 75.7001 163.185 77.5 159.585 78.3C156.585 78.9501 154.035 78.2001 153.385 75.7001C153.285 75.4 153.235 75.1001 153.185 74.8C152.135 76.8 150.085 78.5001 146.635 78.5001C142.435 78.5001 137.985 76.7001 137.835 71.9501C137.585 65.65 142.385 63.7001 147.735 63.7001C149.235 63.7001 150.635 63.7001 151.785 63.7001V61.6501C151.785 57.9501 151.485 56.7001 150.185 56.5C146.685 56.05 149.035 64.05 142.435 62.8C140.185 62.4001 139.285 59.25 141.035 56.8C142.885 54.25 147.035 53.5 150.335 53.5C155.035 53.5 161.985 55.7001 161.985 62.8501V69.05ZM149.635 73.7501C150.985 73.7501 151.785 72.55 151.785 69.3V66.4501C151.485 66.4501 151.135 66.4501 150.785 66.4501C148.485 66.4501 147.335 68.1001 147.335 70.8C147.335 73.1001 148.435 73.7501 149.635 73.7501Z" fill="#B16927"/>
<path d="M63.5029 29.0501C63.5029 31.5 66.0029 32.1 66.0029 33.8C66.0029 33.9 66.0029 33.8001 66.0029 33.9001C66.0029 35.75 64.3529 37.5501 60.7529 38.3001C57.8029 38.9501 55.6529 37.9501 54.9029 35.7001C54.7529 35.3 54.7029 34.9501 54.6029 34.55C53.4529 36.8 51.1529 38.5 47.7029 38.5C40.9029 38.5 37.7029 34.05 37.7029 28.5V23C37.7029 20.55 36.0029 19.95 36.0029 18.25C36.0029 18.15 36.0029 18.2501 36.0029 18.1501C36.0029 16.3001 37.4029 14.8001 41.5529 13.9001C44.9529 13.1501 47.8529 13.25 47.8529 16.1501C47.8529 16.7001 47.8529 28.9501 47.8529 28.9501C47.8529 32.3501 48.8029 33.6001 50.5529 33.6001C52.1029 33.6001 53.3029 32.3501 53.3529 29.3001V23C53.3529 20.55 51.6529 19.95 51.6529 18.25C51.6529 18.15 51.6529 18.2501 51.6529 18.1501C51.6529 16.3001 53.0529 14.8001 57.2029 13.9001C60.6029 13.1501 63.5029 13.25 63.5029 16.1501C63.5029 16.7001 63.5029 29.0501 63.5029 29.0501Z" fill="#B16927"/>
<path d="M79.977 30.9501C79.977 33.4001 81.627 34 81.627 35.7001C81.627 35.8 81.627 35.7501 81.627 35.8001C81.627 37.6501 78.527 38.1501 74.877 38.1501C71.227 38.1501 68.127 37.6501 68.127 35.8001C68.127 35.7501 68.127 35.8 68.127 35.7001C68.127 34 69.777 33.4001 69.777 30.9501V10.35C69.777 7.95005 68.127 7.35005 68.127 5.65005C68.127 5.55005 68.127 5.60005 68.127 5.55005C68.127 3.70005 70.077 2.40005 73.927 0.950048C77.177 -0.249951 79.977 -0.34995 79.977 2.55005C79.977 2.80005 79.977 30.9501 79.977 30.9501Z" fill="#B16927"/>
<path d="M98.9012 31.4501C100.951 31.5 102.501 30.75 103.551 30C104.601 29.15 105.451 28.8001 106.301 29.5501C108.051 30.9501 104.801 38.5 96.5012 38.5C89.8512 38.5 82.9512 34.55 82.9512 26.2001C82.9512 19.0501 88.0012 13.7501 95.3012 13.5001C99.6012 13.3 102.401 14.4501 104.651 16.7001C106.301 18.3501 107.401 21.35 105.201 23.4501C103.301 25.3001 98.9012 25.1001 97.7512 19.6501C97.3012 17.5 96.2012 16.65 94.8512 16.85C92.6512 17.15 91.4512 20.4501 92.2512 24.9C93.0512 29.6 95.7512 31.35 98.9012 31.4501Z" fill="#B16927"/>
<path d="M128.196 30.9001C129.396 30.4001 130.196 29.9501 130.946 30.4501C133.046 31.8001 129.696 38.75 121.346 38.5C114.546 38.35 108.646 34.3 108.646 26C108.646 19.05 113.746 13.6 120.696 13.5001C127.546 13.4001 131.596 17.85 131.996 22.3001C132.296 25.85 131.246 26.7001 128.946 26.7001H118.396C119.346 31.7001 124.846 32.1501 128.196 30.9001ZM121.446 17.15C119.246 17.15 117.946 19.3 117.946 23.1C117.946 23.1 121.496 23.1 122.496 23.1C123.446 23.1 123.996 22.75 124.096 21.85C124.296 20.2001 124.296 17.15 121.446 17.15Z" fill="#B16927"/>
</svg>
